# xmcd CD database file
#
# Track frame offsets:
#	182
#	20537
#	39395
#	64542
#	86202
#	107097
#	124220
#	141200
#	162747
#	178905
#
# Disc length: 2817 seconds
#
# Revision: 2
# Processed by: cddbd v1.5.2PL0 Copyright (c) Steve Scherf et al.
# Submitted via: CDex 1.70beta2
#
DISCID=8e0aff0a
DTITLE=신촌Blues - LIVE Vol.2
DYEAR=1991
DGENRE=Blues
TTITLE0=첫사랑
TTITLE1=골목길
TTITLE2=밤마다
TTITLE3=서로 다른 이유 때문에
TTITLE4=환상
TTITLE5=갈등
TTITLE6=너의 맘속에 잊혀진 나는
TTITLE7=세월이 한참 흐른 뒤에야
TTITLE8=마틸다
TTITLE9=루씰
EXTD=YEAR: 1991
EXTT0=
EXTT1=
EXTT2=
EXTT3=
EXTT4=
EXTT5=
EXTT6=
EXTT7=
EXTT8=
EXTT9=
PLAYORDER=
